<svg width="35" height="36" viewBox="0 0 35 36" fill="none" xmlns="http://www.w3.org/2000/svg">
<rect width="35" height="36" rx="17.5" fill="black"/>
<path d="M21.3144 26H13.6856C12.8546 25.9706 12.0805 25.5816 11.5748 24.9393C11.069 24.297 10.8844 23.4685 11.0714 22.68L11.2687 21.768C11.4956 20.5334 12.5862 19.6262 13.8747 19.6H21.1253C22.4138 19.6262 23.5044 20.5334 23.7313 21.768L23.9286 22.68C24.1156 23.4685 23.931 24.297 23.4252 24.9393C22.9195 25.5816 22.1454 25.9706 21.3144 26Z" fill="white" fill-opacity="0.15"/>
<path d="M17.911 18H17.089C15.2729 18 13.8007 16.5673 13.8007 14.8V12.688C13.7985 11.9745 14.0888 11.2895 14.6073 10.785C15.1258 10.2804 15.8296 9.99788 16.5628 10H18.4372C19.1704 9.99788 19.8742 10.2804 20.3927 10.785C20.9112 11.2895 21.2015 11.9745 21.1993 12.688V14.8C21.1993 15.6487 20.8529 16.4626 20.2362 17.0627C19.6195 17.6629 18.7831 18 17.911 18Z" fill="white" fill-opacity="0.15"/>
<path d="M27.4474 23.9474H25.4211C25.2176 23.9474 25.0526 23.7824 25.0526 23.5789V21.5526C25.0526 21.2474 24.8052 21 24.5 21C24.1948 21 23.9474 21.2474 23.9474 21.5526V23.5789C23.9474 23.7824 23.7824 23.9474 23.5789 23.9474H21.5526C21.2474 23.9474 21 24.1948 21 24.5C21 24.8052 21.2474 25.0526 21.5526 25.0526H23.5789C23.7824 25.0526 23.9474 25.2176 23.9474 25.4211V27.4474C23.9474 27.7526 24.1948 28 24.5 28C24.8052 28 25.0526 27.7526 25.0526 27.4474V25.4211C25.0526 25.2176 25.2176 25.0526 25.4211 25.0526H27.4474C27.7526 25.0526 28 24.8052 28 24.5C28 24.1948 27.7526 23.9474 27.4474 23.9474Z" fill="white"/>
</svg>
