<svg xmlns="http://www.w3.org/2000/svg" width="200" height="200" viewBox="0 0 3072 3072" version="1.1"><path d="M 1350.500 499.540 C 1249.300 536.625, 1165.985 566.975, 1165.355 566.984 C 1164.725 566.993, 1161.125 568.307, 1157.355 569.905 C 1145.937 574.744, 751.146 718.998, 749.257 719.022 C 748.291 719.034, 745.475 720.016, 743 721.203 C 740.525 722.391, 660.425 751.988, 565 786.974 L 391.500 850.585 391.246 978.293 L 390.992 1106 493.996 1106 L 597 1106 597 1079.675 L 597 1053.350 606.250 1049.604 C 611.337 1047.544, 621.800 1043.675, 629.500 1041.006 C 637.200 1038.338, 661.275 1029.529, 683 1021.431 C 704.725 1013.332, 725.650 1005.600, 729.500 1004.247 C 737.639 1001.387, 1404.617 755.326, 1415.922 751.013 C 1420.090 749.423, 1448.813 738.822, 1479.750 727.455 L 1536 706.789 1592.250 727.455 C 1623.188 738.822, 1651.910 749.423, 1656.078 751.013 C 1667.383 755.326, 2334.361 1001.387, 2342.500 1004.247 C 2346.350 1005.600, 2367.275 1013.332, 2389 1021.431 C 2410.725 1029.529, 2434.800 1038.338, 2442.500 1041.006 C 2450.200 1043.675, 2460.662 1047.544, 2465.750 1049.604 L 2475 1053.350 2475 1079.675 L 2475 1106 2578.004 1106 L 2681.008 1106 2680.754 978.289 L 2680.500 850.577 2507 786.969 C 2411.575 751.984, 2331.475 722.389, 2329 721.202 C 2326.525 720.015, 2323.709 719.034, 2322.743 719.022 C 2320.947 719, 1926.376 574.866, 1915.500 570.259 C 1912.200 568.862, 1908.150 567.390, 1906.500 566.990 C 1904.850 566.590, 1821.006 536.053, 1720.179 499.131 C 1619.352 462.209, 1536.327 432.025, 1535.679 432.056 C 1535.031 432.087, 1451.700 462.455, 1350.500 499.540 M 391 1156.918 C 391 1157.423, 391.255 1158.500, 391.566 1159.311 C 392.080 1160.650, 694.450 1459.123, 705 1468.706 L 709.500 1472.793 788 1473.537 L 866.500 1474.281 885.391 1491.891 C 895.781 1501.576, 907.706 1512.584, 911.891 1516.352 C 922.778 1526.156, 938.479 1540.740, 943.875 1546.059 C 947.632 1549.762, 1014.972 1612.486, 1043.657 1639 C 1047.525 1642.575, 1079.559 1672.419, 1114.845 1705.320 L 1179 1765.140 1179 1862.468 L 1179 1959.796 1184.750 1965.705 C 1190.462 1971.574, 1226.469 2005.294, 1241.195 2018.565 C 1245.428 2022.379, 1288.178 2062.099, 1336.195 2106.830 C 1384.213 2151.562, 1426.200 2190.665, 1429.500 2193.726 C 1432.800 2196.786, 1455.078 2217.563, 1479.006 2239.895 C 1502.935 2262.228, 1525.547 2283.142, 1529.256 2286.372 L 1536 2292.244 1542.744 2286.372 C 1546.453 2283.142, 1569.065 2262.228, 1592.994 2239.895 C 1616.922 2217.563, 1639.200 2196.786, 1642.500 2193.726 C 1645.800 2190.665, 1687.787 2151.562, 1735.805 2106.830 C 1783.822 2062.099, 1826.572 2022.379, 1830.805 2018.565 C 1845.531 2005.294, 1881.538 1971.574, 1887.250 1965.705 L 1893 1959.796 1893 1862.468 L 1893 1765.140 1957.155 1705.320 C 1992.441 1672.419, 2024.475 1642.575, 2028.343 1639 C 2057.028 1612.486, 2124.368 1549.762, 2128.125 1546.059 C 2133.521 1540.740, 2149.222 1526.156, 2160.109 1516.352 C 2164.294 1512.584, 2176.219 1501.576, 2186.609 1491.891 L 2205.500 1474.281 2284 1473.537 L 2362.500 1472.793 2367 1468.706 C 2369.475 1466.458, 2441.138 1396.005, 2526.250 1312.144 C 2620.250 1219.526, 2681 1158.948, 2681 1157.834 C 2681 1156.059, 2670.934 1156, 2369.101 1156 L 2057.202 1156 2032.851 1178.645 C 2019.458 1191.099, 2002.650 1206.768, 1995.500 1213.464 C 1988.350 1220.160, 1882.037 1319.103, 1759.250 1433.337 L 1536 1641.036 1312.750 1433.337 C 1189.963 1319.103, 1083.650 1220.160, 1076.500 1213.464 C 1069.350 1206.768, 1052.542 1191.099, 1039.149 1178.645 L 1014.798 1156 702.899 1156 C 514.154 1156, 391 1156.363, 391 1156.918 M 391 1414.153 C 391 1572.199, 391.202 1598.238, 392.449 1601.223 C 393.891 1604.675, 500.611 1777.058, 508.079 1787.998 C 510.236 1791.158, 512 1794.005, 512 1794.325 C 512 1794.991, 1037.741 2642.104, 1038.867 2643.252 C 1039.273 2643.666, 1139.581 2643.891, 1261.774 2643.752 L 1483.943 2643.500 1453.222 2614.941 C 1436.325 2599.234, 1386.050 2552.495, 1341.500 2511.078 C 1296.950 2469.660, 1259.076 2434.474, 1257.336 2432.886 L 1254.172 2430 1216.721 2430 L 1179.270 2430 1173.945 2421.250 C 1171.016 2416.438, 1166.455 2409.296, 1163.810 2405.379 C 1161.164 2401.462, 1159 2398.022, 1159 2397.734 C 1159 2397.446, 1142.982 2371.401, 1123.404 2339.855 C 1103.826 2308.310, 1086.614 2280.563, 1085.154 2278.196 C 1083.694 2275.828, 1080.875 2271.328, 1078.889 2268.196 C 1076.903 2265.063, 1025.867 2182.850, 965.475 2085.500 C 905.083 1988.150, 847.139 1894.775, 836.712 1878 C 826.284 1861.225, 814.129 1841.650, 809.699 1834.500 C 805.270 1827.350, 800.208 1819.250, 798.451 1816.500 C 796.693 1813.750, 785.377 1795.525, 773.303 1776 C 761.229 1756.475, 749.219 1737.125, 746.614 1733 C 744.009 1728.875, 734.655 1713.800, 725.827 1699.500 C 717 1685.200, 702.920 1662.475, 694.538 1649 C 679.940 1625.532, 600.450 1497.444, 587.405 1476.369 L 581.134 1466.239 591.317 1459.957 C 605.917 1450.950, 615 1444.842, 615 1444.032 C 615 1442.745, 598.078 1426.567, 490 1324.521 C 443.525 1280.640, 402.238 1241.546, 398.250 1237.644 L 391 1230.550 391 1414.153 M 2586.326 1320.413 C 2458.708 1441.138, 2457 1442.770, 2457 1444.032 C 2457 1444.842, 2466.083 1450.950, 2480.683 1459.957 L 2490.866 1466.239 2484.595 1476.369 C 2481.146 1481.941, 2459.211 1517.325, 2435.851 1555 C 2412.491 1592.675, 2392.506 1624.944, 2391.439 1626.708 C 2390.373 1628.473, 2376.415 1650.973, 2360.422 1676.708 C 2344.429 1702.444, 2330.029 1725.628, 2328.422 1728.229 C 2326.815 1730.829, 2315.764 1748.604, 2303.863 1767.729 C 2291.963 1786.853, 2280.488 1805.318, 2278.363 1808.763 C 2276.239 1812.207, 2269.811 1822.557, 2264.079 1831.763 C 2230.021 1886.465, 2205.608 1925.782, 2106.525 2085.500 C 2046.133 2182.850, 1995.097 2265.063, 1993.111 2268.196 C 1991.125 2271.328, 1988.306 2275.828, 1986.846 2278.196 C 1985.386 2280.563, 1968.174 2308.310, 1948.596 2339.855 C 1929.018 2371.401, 1913 2397.446, 1913 2397.734 C 1913 2398.022, 1910.836 2401.462, 1908.190 2405.379 C 1905.545 2409.296, 1900.984 2416.438, 1898.055 2421.250 L 1892.730 2430 1855.279 2430 L 1817.828 2430 1814.664 2432.886 C 1812.924 2434.474, 1775.050 2469.660, 1730.500 2511.078 C 1685.950 2552.495, 1635.675 2599.234, 1618.778 2614.941 L 1588.057 2643.500 1810.226 2643.752 C 1932.419 2643.891, 2032.727 2643.666, 2033.133 2643.252 C 2034.489 2641.869, 2560 1794.919, 2560 1794.117 C 2560 1793.682, 2561.737 1790.890, 2563.860 1787.913 C 2570.218 1778.996, 2678.093 1604.808, 2679.610 1601.010 C 2680.797 1598.036, 2680.972 1569.517, 2680.755 1414.413 L 2680.500 1231.326 2586.326 1320.413" stroke="none" fill="#fffcfc" fill-rule="evenodd"/><path d="" stroke="none" fill="#fcfcfc" fill-rule="evenodd"/></svg>