<svg width="23" height="15" viewBox="0 0 23 15" fill="none" xmlns="http://www.w3.org/2000/svg">
<path fill-rule="evenodd" clip-rule="evenodd" d="M15.0002 3.75997C14.9675 5.39335 13.6339 6.7003 12.0002 6.69997C10.386 6.67338 9.08229 5.37409 9.05022 3.75997V2.62997C9.05002 1.96436 9.31847 1.32684 9.79475 0.861857C10.271 0.396878 10.9148 0.143802 11.5802 0.159971H12.5202C13.177 0.157311 13.8079 0.416368 14.2732 0.879872C14.7386 1.34338 15.0002 1.97315 15.0002 2.62997V3.75997ZM11.5502 1.62997C10.9979 1.62997 10.5502 2.07769 10.5502 2.62997L10.5902 3.75997C10.5902 4.56078 11.2394 5.20997 12.0402 5.20997C12.841 5.20997 13.4902 4.56078 13.4902 3.75997V2.62997C13.4902 2.07769 13.0425 1.62997 12.4902 1.62997H11.5502Z" fill="white"/>
<path fill-rule="evenodd" clip-rule="evenodd" d="M22.4802 10.3L22.5902 11.86C22.7058 12.3482 22.5929 12.8625 22.2836 13.2575C21.9742 13.6525 21.5019 13.8852 21.0002 13.89H16.5102C16.1185 14.3075 15.5727 14.5461 15.0002 14.55H9.00022C8.3988 14.558 7.82306 14.3066 7.42022 13.86C7.32717 13.8703 7.23327 13.8703 7.14022 13.86H2.55022C2.06219 13.8416 1.60739 13.6079 1.30823 13.2219C1.00907 12.8359 0.896277 12.3372 1.00022 11.86L1.15022 10.3C1.29614 9.55561 1.94182 9.01407 2.70022 8.99997H7.00022C7.17971 8.99002 7.35947 9.01376 7.53022 9.06997C7.91387 8.59073 8.49636 8.31424 9.11022 8.31997H14.8902C15.4682 8.31782 16.0188 8.56578 16.4002 8.99997C16.4699 8.99012 16.5406 8.99012 16.6102 8.99997H20.9302C21.6886 9.01407 22.3343 9.55561 22.4802 10.3ZM16.5502 12.36H21.0802C21.1108 12.301 21.1145 12.2318 21.0902 12.17V11.97L20.9902 10.55L20.9302 10.47H16.4002C15.9775 10.4715 15.574 10.2934 15.2902 9.97997C15.191 9.8613 15.0449 9.7919 14.8902 9.78997H9.11022C8.94269 9.79212 8.78492 9.86917 8.68022 9.99997C8.39476 10.3388 7.97329 10.5331 7.53022 10.53C7.34879 10.5308 7.16888 10.4969 7.00022 10.43H2.75022C2.69022 10.43 2.69022 10.45 2.69022 10.51L2.59022 11.93V12.13C2.56284 12.1903 2.56284 12.2596 2.59022 12.32H7.18022C7.28667 12.3102 7.39378 12.3102 7.50022 12.32C7.90662 12.3275 8.29119 12.5053 8.56022 12.81C8.67056 12.9391 8.83044 13.0154 9.00022 13.02H15.0402C15.2103 13.0167 15.3707 12.9401 15.4802 12.81C15.7614 12.5215 16.1474 12.3592 16.5502 12.36Z" fill="white"/>
<path fill-rule="evenodd" clip-rule="evenodd" d="M20.9702 5.25997C20.9702 6.475 19.9852 7.45997 18.7702 7.45997C18.185 7.46263 17.6229 7.23202 17.2081 6.81915C16.7934 6.40628 16.5602 5.84518 16.5602 5.25997V4.41997C16.5602 3.92932 16.7551 3.45876 17.1021 3.11182C17.449 2.76488 17.9196 2.56997 18.4102 2.56997H19.1202C20.1419 2.56997 20.9702 3.39824 20.9702 4.41997V5.25997ZM18.1627 4.21248C18.0971 4.27812 18.0602 4.36714 18.0602 4.45997V5.29997C18.1028 5.65703 18.4056 5.92586 18.7652 5.92586C19.1248 5.92586 19.4276 5.65703 19.4702 5.29997V4.45997C19.4702 4.26667 19.3135 4.10997 19.1202 4.10997H18.4102C18.3174 4.10997 18.2284 4.14685 18.1627 4.21248Z" fill="white"/>
<path fill-rule="evenodd" clip-rule="evenodd" d="M6.42232 6.81915C6.00758 7.23202 5.44543 7.46263 4.86022 7.45997C4.27674 7.45997 3.71717 7.22819 3.30459 6.81561C2.89201 6.40303 2.66022 5.84345 2.66022 5.25997V4.41997C2.66022 3.39824 3.48849 2.56997 4.51022 2.56997H5.22022C6.24195 2.56997 7.07022 3.39824 7.07022 4.41997V5.25997C7.07023 5.84518 6.83707 6.40628 6.42232 6.81915ZM4.51022 4.10997C4.31692 4.10997 4.16022 4.26667 4.16022 4.45997V5.29997C4.20282 5.65703 4.50563 5.92586 4.86522 5.92586C5.22481 5.92586 5.52762 5.65703 5.57022 5.29997V4.45997C5.57022 4.26667 5.41352 4.10997 5.22022 4.10997H4.51022Z" fill="white"/>
</svg>
